:FULLY-SPECIFIED
:FORCE-ALL-JOINTS-BE-3DOF
:DEGREES
1325
root -1.75275 14.4502 8.17207 351.846 32.1601 363.259
lfemur 2.65301 4.0106 -16.3732
ltibia 53.9619 -0 0
lfoot -28.2831 29.8283 -0.00713706
ltoes -18.53 0 0
rfemur -46.2914 -7.8156 3.13533
rtibia 31.8444 -0 0
rfoot 10.87 3.81803 0.504977
rtoes -7.35545 0 0
lowerback 13.8418 0.429093 -13.0701
upperback -1.31861 -1.66045 -0.28836
thorax -8.94001 -0.155813 7.43607
lowerneck -0.617984 -10.9913 -11.693
upperneck 9.82999 -15.4783 10.8273
head 4.80148 -7.64342 4.31606
lclavicle 5.74985e-14 3.89618e-14 0
lhumerus -73.6801 -18.7078 106.401
lradius 100.342 0 0
lwrist 63.775 0 0
lhand -13.1683 29.239 0
lfingers 7.12502 0 0
lthumb 12.931 -301.182 0
rclavicle 5.74985e-14 3.89618e-14 0
rhumerus 63.3748 -2.57 -31.9511
rradius 78.0289 0 0
rwrist 30.5404 0 0
rhand -38.671 -40.7751 0
rfingers 7.12502 0 0
rthumb -11.6864 -70.4291 0
1326
root -1.85616 14.3247 8.39616 350.693 34.1457 363.342
lfemur 3.08573 3.82204 -16.0088
ltibia 53.6194 -0 0
lfoot -28.2919 30.3928 -0.007267
ltoes -18.1504 0 0
rfemur -46.6063 -8.34504 3.3275
rtibia 33.1312 -0 0
rfoot 11.7484 4.61435 0.348801
rtoes -7.6075 0 0
lowerback 16.8339 0.55452 -13.755
upperback -1.13284 -2.09608 -0.45524
thorax -10.346 -0.231402 7.83259
lowerneck -0.127438 -11.3868 -11.8384
upperneck 8.79124 -16.0436 11.4347
head 4.53092 -7.9304 4.51727
lclavicle 7.50412e-15 1.19271e-14 0
lhumerus -75.7681 -17.3086 105.529
lradius 101.731 0 0
lwrist 62.9403 0 0
lhand -12.5344 28.477 0
lfingers 7.12502 0 0
lthumb 13.542 -301.983 0
rclavicle 7.50412e-15 1.19271e-14 0
rhumerus 63.0701 -4.68318 -30.35
rradius 78.8716 0 0
rwrist 31.7255 0 0
rhand -39.0595 -40.6443 0
rfingers 7.12502 0 0
rthumb -12.061 -70.2767 0
1327
root -1.87376 14.243 8.65248 351.936 33.8852 364.042
lfemur 3.51715 3.63075 -15.6459
ltibia 53.2769 -0 0
lfoot -28.3007 30.9573 -0.00731032
ltoes -17.7707 0 0
rfemur -46.9234 -8.87342 3.52287
rtibia 34.418 -0 0
rfoot 12.6246 5.40818 0.180452
rtoes -7.85955 0 0
lowerback 16.062 0.828815 -14.3709
upperback -1.32181 -1.77164 -0.752711
thorax -10.1964 -0.0560566 7.74248
lowerneck 0.344053 -11.6521 -11.9069
upperneck 7.92886 -16.4117 11.7802
head 4.27042 -8.12855 4.64439
lclavicle 2.64384e-14 1.27222e-14 0
lhumerus -77.3213 -15.4281 103.973
lradius 103.176 0 0
lwrist 61.1007 0 0
lhand -11.422 26.5559 0
lfingers 7.12502 0 0
lthumb 14.6139 -303.979 0
rclavicle 2.64384e-14 1.27222e-14 0
rhumerus 62.7541 -6.28114 -29.4077
rradius 79.803 0 0
rwrist 32.0383 0 0
rhand -39.1579 -41.0794 0
rfingers 7.12502 0 0
rthumb -12.1559 -70.7062 0
1328
root -1.87162 14.1918 8.90018 353.308 33.0778 364.356
lfemur 3.94726 3.43673 -15.2845
ltibia 52.9345 -0 0
lfoot -28.3095 31.5218 -0.007267
ltoes -17.3911 0 0
rfemur -47.2428 -9.40073 3.72149
rtibia 35.7049 -0 0
rfoot 13.4983 6.19933 0
rtoes -8.11161 0 0
lowerback 14.5887 1.10008 -14.4824
upperback -1.59671 -1.22435 -0.987983
thorax -9.79573 0.18356 7.37849
lowerneck 0.782239 -11.8109 -11.8269
upperneck 7.47864 -16.6357 11.8229
head 4.08644 -8.2567 4.66403
lclavicle -5.89397e-14 -3.57812e-14 0
lhumerus -78.4069 -13.6892 102.022
lradius 104.585 0 0
lwrist 60.7087 0 0
lhand -9.25055 28.4115 0
lfingers 7.12502 0 0
lthumb 16.7052 -302.287 0
rclavicle -5.89397e-14 -3.57812e-14 0
rhumerus 62.3378 -7.55767 -28.9439
rradius 80.6295 0 0
rwrist 31.8208 0 0
rhand -39.5817 -41.314 0
rfingers 7.12502 0 0
rthumb -12.5645 -70.9162 0
1329
root -1.86577 14.2029 9.11508 354.519 31.8263 364.2
lfemur 4.37604 3.24002 -14.9247
ltibia 52.592 -0 0
lfoot -28.3183 32.0863 -0.00713706
ltoes -17.0115 0 0
rfemur -47.5646 -9.92692 3.92341
rtibia 36.9917 -0 0
rfoot 12.839 6.23473 -0.00512679
rtoes -8.36366 0 0
lowerback 13.2781 1.43225 -14.0079
upperback -1.9627 -0.520957 -1.1195
thorax -9.61503 0.491432 6.79182
lowerneck 0.982217 -11.9951 -11.4784
upperneck 7.35023 -16.8509 11.3445
head 3.97017 -8.37639 4.47014
lclavicle 2.10712e-14 -1.19271e-14 0
lhumerus -79.2431 -12.2229 100.65
lradius 105.882 0 0
lwrist 62.1407 0 0
lhand -9.55163 30.1045 0
lfingers 7.12502 0 0
lthumb 16.4154 -300.57 0
rclavicle 2.10712e-14 -1.19271e-14 0
rhumerus 62.0772 -8.63466 -28.8781
rradius 81.2634 0 0
rwrist 31.3317 0 0
rhand -40.1383 -40.8325 0
rfingers 7.12502 0 0
rthumb -13.1011 -70.401 0
1330
root -1.84394 14.1483 9.31333 354.805 29.8074 363.95
lfemur 4.8035 3.04063 -14.5664
ltibia 52.2495 -0 0
lfoot -28.3271 32.6507 -0.0069205
ltoes -16.6318 0 0
rfemur -47.8888 -10.452 4.12866
rtibia 38.2785 -0 0
rfoot 12.1798 6.27018 -0.00984594
rtoes -8.61571 0 0
lowerback 12.5842 2.1034 -13.1569
upperback -2.04484 0.607542 -1.2329
thorax -9.53186 0.977159 5.94627
lowerneck 1.23702 -12.0384 -11.3764
upperneck 7.05788 -16.8905 11.1599
head 3.82049 -8.41063 4.42291
lclavicle -3.70733e-14 2.22639e-14 0
lhumerus -79.4468 -11.1333 99.9165
lradius 106.506 0 0
lwrist 64.619 0 0
lhand -11.0235 29.7845 0
lfingers 7.12502 0 0
lthumb 14.9978 -300.779 0
rclavicle -3.70733e-14 2.22639e-14 0
rhumerus 61.8327 -9.45098 -29.2459
rradius 81.7985 0 0
rwrist 31.0775 0 0
rhand -40.753 -40.158 0
rfingers 7.12502 0 0
rthumb -13.6936 -69.6875 0
1331
root -1.83959 14.0857 9.45963 355.686 28.9535 364.103
lfemur 5.22963 2.83859 -14.2097
ltibia 51.907 -0 0
lfoot -28.3359 33.2152 -0.00661736
ltoes -16.2522 0 0
rfemur -48.2154 -10.9759 4.33729
rtibia 39.5653 -0 0
rfoot 11.5205 6.30569 -0.0141568
rtoes -8.49007 0 0
lowerback 12.1 2.33911 -12.6599
upperback -2.15329 1.05997 -1.31449
thorax -9.44545 1.16323 5.48597
lowerneck 0.976402 -12.0133 -11.3387
upperneck 7.08107 -16.7891 10.6968
head 3.81556 -8.36324 4.27174
lclavicle -9.19379e-15 1.59028e-15 0
lhumerus -78.8329 -10.1676 99.3882
lradius 106.344 0 0
lwrist 64.3537 0 0
lhand -9.40009 32.4838 0
lfingers 7.12502 0 0
lthumb 16.5613 -298.203 0
rclavicle -9.19379e-15 1.59028e-15 0
rhumerus 61.9918 -10.2069 -29.6854
rradius 82.3097 0 0
rwrist 30.7208 0 0
rhand -41.314 -39.4137 0
rfingers 7.12502 0 0
rthumb -14.2343 -68.906 0
1332
root -1.83115 14.0232 9.60085 355.872 27.7 364.145
lfemur 5.65442 2.6339 -13.8546
ltibia 51.5645 -0 0
lfoot -28.3446 33.7797 -0.00622765
ltoes -15.8726 0 0
rfemur -48.5446 -11.4986 4.54934
rtibia 40.8521 -0 0
rfoot 10.8612 6.34124 -0.0180589
rtoes -8.36443 0 0
lowerback 12.0785 2.78001 -12.0914
upperback -2.0569 1.74427 -1.32269
thorax -9.43104 1.45425 5.01603
lowerneck 0.987933 -12.0345 -11.3222
upperneck 6.68299 -16.7593 10.4027
head 3.6639 -8.35956 4.19732
lclavicle 7.93151e-14 -1.03368e-14 0
lhumerus -78.009 -9.8451 99.8766
lradius 105.84 0 0
lwrist 61.254 0 0
lhand -9.02694 34.9099 0
lfingers 7.12502 0 0
lthumb 16.9205 -295.807 0
rclavicle 7.93151e-14 -1.03368e-14 0
rhumerus 62.2389 -10.9338 -30.1082
rradius 82.6144 0 0
rwrist 30.2163 0 0
rhand -41.862 -37.9998 0
rfingers 7.12502 0 0
rthumb -14.7623 -67.4541 0
1333
root -1.83785 13.9645 9.74347 356.473 26.8007 364.407
lfemur 6.07786 2.42659 -13.501
ltibia 51.222 -0 0
lfoot -28.3534 34.3442 -0.00575141
ltoes -15.4929 0 0
rfemur -48.8764 -12.0202 4.76487
rtibia 42.1389 -0 0
rfoot 10.2019 6.37684 -0.0215516
rtoes -8.23878 0 0
lowerback 11.7846 3.07012 -12.12
upperback -2.10295 2.1703 -1.27399
thorax -9.39409 1.66136 5.00042
lowerneck 1.45234 -11.9789 -11.5653
upperneck 5.99653 -16.6835 10.5317
head 3.40504 -8.34381 4.32565
lclavicle 4.23908e-14 7.95139e-15 0
lhumerus -77.3796 -9.91788 101.086
lradius 105.295 0 0
lwrist 56.2693 0 0
lhand -11.9588 35.3265 0
lfingers 7.12502 0 0
lthumb 14.0967 -295.172 0
rclavicle 4.23908e-14 7.95139e-15 0
rhumerus 62.5467 -11.355 -30.4441
rradius 82.7569 0 0
rwrist 29.7979 0 0
rhand -42.5612 -36.0444 0
rfingers 7.12502 0 0
rthumb -15.4357 -65.448 0
1334
root -1.85294 13.9271 9.87981 356.55 26.3118 364.676
lfemur 6.49995 2.21668 -13.1491
ltibia 50.8796 -0 0
lfoot -28.3622 34.9086 -0.0051887
ltoes -15.1133 0 0
rfemur -49.2109 -12.5404 4.98391
rtibia 43.4257 -0 0
rfoot 9.54265 6.41247 -0.0246345
rtoes -8.11313 0 0
lowerback 12.1341 3.32847 -12.2429
upperback -2.0278 2.4534 -1.21224
thorax -9.57643 1.81068 5.06425
lowerneck 1.59792 -11.9693 -11.7169
upperneck 5.88495 -16.6762 10.5607
head 3.36227 -8.34762 4.36852
lclavicle -3.51849e-14 -1.35174e-14 0
lhumerus -76.6113 -10.3877 101.946
lradius 104.441 0 0
lwrist 52.7173 0 0
lhand -13.046 34.2298 0
lfingers 7.12502 0 0
lthumb 13.0488 -296.198 0
rclavicle -3.51849e-14 -1.35174e-14 0
rhumerus 62.7739 -11.6824 -30.6316
rradius 82.769 0 0
rwrist 29.6049 0 0
rhand -42.7424 -34.7119 0
rfingers 7.12502 0 0
rthumb -15.6103 -64.1021 0
1335
root -1.87401 13.9151 10.0157 356.731 26.2756 365.032
lfemur 6.92068 2.00419 -12.7987
ltibia 50.5371 -0 0
lfoot -28.371 35.4731 -0.00453956
ltoes -14.7337 0 0
rfemur -49.5481 -13.0595 5.20651
rtibia 44.7125 -0 0
rfoot 8.88337 6.44814 -0.0273072
rtoes -7.98747 0 0
lowerback 12.5398 3.44302 -12.5407
upperback -2.01288 2.50073 -1.18041
thorax -9.82496 1.86186 5.23928
lowerneck 1.51939 -11.9956 -11.7438
upperneck 6.15134 -16.7179 10.512
head 3.45782 -8.36533 4.34152
lclavicle 9.91439e-14 -1.43125e-14 0
lhumerus -75.729 -11.1094 102.241
lradius 103.663 0 0
lwrist 52.884 0 0
lhand -13.0453 32.8405 0
lfingers 7.12502 0 0
lthumb 13.0496 -297.588 0
rclavicle 9.91439e-14 -1.43125e-14 0
rhumerus 62.8861 -11.8751 -30.6759
rradius 82.6188 0 0
rwrist 29.7895 0 0
rhand -42.9655 -33.6941 0
rfingers 7.12502 0 0
rthumb -15.8251 -63.0674 0
